<mxfile host="app.diagrams.net" modified="2022-09-14T09:57:47.316Z" agent="5.0 (Macintosh; Intel Mac OS X 10_15_7) AppleWebKit/537.36 (KHTML, like Gecko) Chrome/105.0.0.0 Safari/537.36" etag="Z784NTAKIkyD_ACMoYDn" version="20.3.0" type="github">
  <diagram id="ezzTFkREfaE07lPK0sqI" name="第 1 页">
    <mxGraphModel dx="946" dy="655" grid="1" gridSize="10" guides="1" tooltips="1" connect="1" arrows="1" fold="1" page="1" pageScale="1" pageWidth="827" pageHeight="1169" math="0" shadow="0">
      <root>
        <mxCell id="0" />
        <mxCell id="1" parent="0" />
        <mxCell id="QyMb5ej_o956WVgUveVu-1" value="1" style="rounded=0;whiteSpace=wrap;html=1;fontSize=16;" vertex="1" parent="1">
          <mxGeometry x="120" y="200" width="80" height="40" as="geometry" />
        </mxCell>
        <mxCell id="QyMb5ej_o956WVgUveVu-2" value="3" style="rounded=0;whiteSpace=wrap;html=1;fontSize=16;" vertex="1" parent="1">
          <mxGeometry x="200" y="200" width="80" height="40" as="geometry" />
        </mxCell>
        <mxCell id="QyMb5ej_o956WVgUveVu-3" value="5" style="rounded=0;whiteSpace=wrap;html=1;fontSize=16;fillColor=#f8cecc;strokeColor=#b85450;" vertex="1" parent="1">
          <mxGeometry x="280" y="200" width="80" height="40" as="geometry" />
        </mxCell>
        <mxCell id="QyMb5ej_o956WVgUveVu-4" value="6" style="rounded=0;whiteSpace=wrap;html=1;fontSize=16;" vertex="1" parent="1">
          <mxGeometry x="360" y="200" width="80" height="40" as="geometry" />
        </mxCell>
        <mxCell id="QyMb5ej_o956WVgUveVu-5" value="路飞" style="rounded=0;whiteSpace=wrap;html=1;fontSize=16;" vertex="1" parent="1">
          <mxGeometry x="120" y="240" width="80" height="40" as="geometry" />
        </mxCell>
        <mxCell id="QyMb5ej_o956WVgUveVu-6" value="索隆" style="rounded=0;whiteSpace=wrap;html=1;fontSize=16;" vertex="1" parent="1">
          <mxGeometry x="200" y="240" width="80" height="40" as="geometry" />
        </mxCell>
        <mxCell id="QyMb5ej_o956WVgUveVu-7" value="乌索普" style="rounded=0;whiteSpace=wrap;html=1;fontSize=16;fillColor=#f8cecc;strokeColor=#b85450;" vertex="1" parent="1">
          <mxGeometry x="280" y="240" width="80" height="40" as="geometry" />
        </mxCell>
        <mxCell id="QyMb5ej_o956WVgUveVu-8" value="山治" style="rounded=0;whiteSpace=wrap;html=1;fontSize=16;" vertex="1" parent="1">
          <mxGeometry x="360" y="240" width="80" height="40" as="geometry" />
        </mxCell>
        <mxCell id="QyMb5ej_o956WVgUveVu-9" value="id 列:" style="text;html=1;align=center;verticalAlign=middle;resizable=0;points=[];autosize=1;strokeColor=none;fillColor=none;fontSize=16;" vertex="1" parent="1">
          <mxGeometry x="55" y="205" width="60" height="30" as="geometry" />
        </mxCell>
        <mxCell id="QyMb5ej_o956WVgUveVu-10" value="name 列:" style="text;html=1;align=center;verticalAlign=middle;resizable=0;points=[];autosize=1;strokeColor=none;fillColor=none;fontSize=16;" vertex="1" parent="1">
          <mxGeometry x="30" y="250" width="90" height="30" as="geometry" />
        </mxCell>
        <mxCell id="QyMb5ej_o956WVgUveVu-11" value="临键锁：(3, 5]" style="shape=callout;whiteSpace=wrap;html=1;perimeter=calloutPerimeter;fontSize=16;fillColor=#dae8fc;strokeColor=#6c8ebf;" vertex="1" parent="1">
          <mxGeometry x="180" y="50" width="180" height="80" as="geometry" />
        </mxCell>
        <mxCell id="QyMb5ej_o956WVgUveVu-12" value="" style="line;strokeWidth=2;html=1;rotation=60;" vertex="1" parent="1">
          <mxGeometry x="212" y="157" width="90" height="10" as="geometry" />
        </mxCell>
        <mxCell id="QyMb5ej_o956WVgUveVu-13" value="" style="line;strokeWidth=2;html=1;rotation=-60;" vertex="1" parent="1">
          <mxGeometry x="254" y="156.61" width="90" height="10" as="geometry" />
        </mxCell>
      </root>
    </mxGraphModel>
  </diagram>
</mxfile>
